<svg xmlns="http://www.w3.org/2000/svg" width="512" height="512" viewBox="0 0 416.592 416.592"><path d="M52.973 202.847c3.564 0 7.138-1.327 9.908-3.997 5.687-5.475 5.852-14.519.378-20.203l-38.678-40.139c-5.476-5.683-14.524-5.851-20.206-.377-5.68 5.473-5.854 14.521-.376 20.202l38.682 40.14a14.242 14.242 0 0 0 10.292 4.374zM97.321 154.729c2.474 5.078 7.559 8.03 12.85 8.03 2.105 0 4.234-.465 6.255-1.447 7.091-3.46 10.036-12.014 6.577-19.105L98.569 92.08c-3.459-7.092-12.016-10.039-19.104-6.583-7.096 3.459-10.045 12.013-6.587 19.104l24.443 50.128zM160.632 130.559c1.076 7.08 7.168 12.152 14.109 12.152.716 0 1.436-.054 2.159-.165 7.8-1.182 13.17-8.463 11.987-16.265l-8.352-55.12c-1.182-7.8-8.461-13.169-16.27-11.987-7.799 1.182-13.169 8.465-11.986 16.269l8.353 55.116zM239.688 142.544c.726.111 1.445.166 2.161.166 6.939 0 13.032-5.072 14.11-12.15l8.351-55.118c1.184-7.804-4.188-15.087-11.986-16.269-7.806-1.182-15.088 4.186-16.27 11.987l-8.352 55.117c-1.183 7.804 4.186 15.085 11.986 16.267zM300.167 161.312a14.255 14.255 0 0 0 6.253 1.445c5.292 0 10.379-2.954 12.851-8.03l24.441-50.126c3.459-7.092.509-15.645-6.587-19.104-7.088-3.456-15.646-.51-19.104 6.583l-24.434 50.13c-3.458 7.09-.51 15.644 6.58 19.102zM412.218 138.131c-5.681-5.473-14.729-5.306-20.207.375l-38.682 40.14c-5.474 5.684-5.309 14.728.38 20.204a14.226 14.226 0 0 0 9.907 3.997c3.749 0 7.488-1.463 10.291-4.375l38.686-40.14c5.478-5.68 5.305-14.727-.375-20.201z" data-original="#000000" class="active-path" data-old_color="#000000" fill="#FFF"/><path d="M374.261 244.769c-.7-.885-17.482-21.884-45.64-42.57-38.075-27.974-79.684-42.76-120.326-42.76-40.646 0-82.254 14.786-120.324 42.76-27.471 20.18-43.863 40.338-45.653 42.585l-8.398 10.623a4.999 4.999 0 0 0 0 6.203l8.403 10.626c.694.88 17.341 21.791 45.646 42.583 38.073 27.976 79.682 42.763 120.326 42.763 40.643 0 82.25-14.787 120.325-42.762 28.15-20.68 44.945-41.69 45.651-42.581l8.401-10.63a4.995 4.995 0 0 0-.001-6.201l-8.41-10.639zm-16.807 14.183c-.622.789-15.579 19.542-41.521 38.595-34.369 25.255-71.595 38.604-107.637 38.604-36.043 0-73.269-13.349-107.635-38.604-26.008-19.105-41.361-38.394-41.521-38.592l-.348-.444.354-.447c.152-.195 15.507-19.484 41.514-38.592 22.464-16.507 46.149-27.925 69.928-33.855 6.343 3.938 10.575 10.951 10.575 18.965 0 12.334-10 22.333-22.334 22.333-6.482 0-12.316-2.764-16.396-7.174a67.838 67.838 0 0 0-1.807 15.507c0 37.373 30.297 67.669 67.67 67.669 37.374 0 67.67-30.296 67.67-67.669 0-17.907-6.969-34.178-18.326-46.282 19.846 6.453 39.496 16.694 58.292 30.505 25.94 19.055 40.898 37.809 41.521 38.597l.349.442-.348.442z" data-original="#000000" class="active-path" data-old_color="#fff" fill="#fff"/></svg>