<svg id="Capa_1" xmlns="http://www.w3.org/2000/svg" viewBox="0 0 512 512"><style>.st0{fill:#d08476;stroke:#d08476;stroke-width:20;stroke-miterlimit:10}</style><path class="st0" d="M509.9 89.6c-2.1-2.1-4.3-4.3-8.5-4.3H96L85.3 29.9c0-4.3-6.4-8.5-10.7-8.5h-64C4.3 21.3 0 25.6 0 32s4.3 10.7 10.7 10.7h55.5L117.4 303c6.4 34.1 38.4 59.7 72.5 59.7h245.3c6.4 0 10.7-4.3 10.7-10.7s-4.3-10.7-10.7-10.7H192c-17.1 0-34.1-8.5-42.7-23.5l311.5-42.7c4.3 0 8.5-4.3 8.5-8.5L512 96s0-4.3-2.1-6.4zM450.1 256l-311.5 40.5-38.4-192h386.1L450.1 256z"/><path class="st0" d="M181.3 384c-29.9 0-53.3 23.5-53.3 53.3 0 29.9 23.5 53.3 53.3 53.3 29.9 0 53.3-23.5 53.3-53.3.1-29.8-23.4-53.3-53.3-53.3zm0 85.3c-17.1 0-32-14.9-32-32s14.9-32 32-32 32 14.9 32 32-14.9 32-32 32zM394.7 384c-29.9 0-53.3 23.5-53.3 53.3 0 29.9 23.5 53.3 53.3 53.3 29.9 0 53.3-23.5 53.3-53.3S424.5 384 394.7 384zm0 85.3c-17.1 0-32-14.9-32-32s14.9-32 32-32 32 14.9 32 32-15 32-32 32z" stroke="#d08476" stroke-width="18"/></svg>